<svg xmlns="http://www.w3.org/2000/svg" version="1.1" xmlns:xlink="http://www.w3.org/1999/xlink" xmlns:svgjs="http://svgjs.com/svgjs" width="750" height="750"><svg xmlns="http://www.w3.org/2000/svg" width="750" height="750" version="1.1" viewBox="0 0 750 750"><g fill="#000" fill-opacity="1"><path d="M375 0A375 375 0 0 0 0 375a375 375 0 0 0 750 0A375 375 0 0 0 375 0Zm-25.434 68.053A308 308 0 0 1 683 375a308 308 0 0 1-616 0A308 308 0 0 1 349.566 68.053Z"></path><path d="M350 250h50v-50h-50zM350 350v-50h-50v50zM250 450h50v-50h-50zM200 550h50v-50h-50zM350 450h50v-50h-50zM400 350h50v-50h-50zM450 450h50v-50h-50zM500 550h50v-50h-50z"></path></g></svg><style>@media (prefers-color-scheme: light) { :root { filter: none; } }
@media (prefers-color-scheme: dark) { :root { filter: invert(100%); } }
</style></svg>