<?xml version="1.0" standalone="no"?>
<!DOCTYPE svg PUBLIC "-//W3C//DTD SVG 20010904//EN"
 "http://www.w3.org/TR/2001/REC-SVG-20010904/DTD/svg10.dtd">
<svg version="1.0" xmlns="http://www.w3.org/2000/svg"
 width="700.000000pt" height="700.000000pt" viewBox="0 0 700.000000 700.000000"
 preserveAspectRatio="xMidYMid meet">
<metadata>
Created by potrace 1.14, written by Peter Selinger 2001-2017
</metadata>
<g transform="translate(0.000000,700.000000) scale(0.100000,-0.100000)"
fill="#000000" stroke="none">
<path d="M3278 6996 c-1 -2 -42 -6 -89 -10 -47 -4 -95 -8 -105 -10 -10 -2 -48
-7 -84 -12 -36 -4 -67 -8 -70 -9 -3 -1 -25 -5 -50 -9 -25 -4 -101 -21 -170
-38 -69 -16 -135 -31 -147 -34 -13 -2 -78 -23 -145 -45 -1071 -357 -1886
-1168 -2242 -2231 -31 -94 -79 -267 -91 -329 -3 -13 -11 -58 -20 -99 -29 -147
-35 -193 -52 -370 -15 -162 -8 -592 12 -711 2 -13 6 -46 9 -74 37 -321 160
-722 326 -1060 58 -118 169 -315 197 -350 4 -6 34 -49 65 -95 171 -256 432
-534 708 -755 92 -74 370 -265 386 -265 4 0 15 -6 23 -14 9 -7 81 -47 161 -88
354 -181 736 -303 1109 -354 25 -3 57 -8 71 -10 163 -25 682 -25 842 1 13 2
46 7 73 10 71 10 87 13 115 18 14 3 43 8 65 12 325 59 741 212 1039 384 49 28
91 51 93 51 10 0 268 180 353 247 151 118 324 281 450 422 36 41 70 79 76 85
29 30 185 242 240 326 120 184 241 412 315 597 66 163 147 422 175 558 16 75
54 300 60 350 4 33 9 76 11 95 8 70 10 517 2 595 -15 164 -21 220 -24 225 -2
3 -6 30 -10 60 -3 30 -10 71 -15 90 -5 19 -12 51 -15 70 -13 77 -66 272 -106
390 -349 1041 -1164 1856 -2204 2208 -167 56 -419 119 -555 137 -19 3 -46 7
-60 10 -13 2 -54 7 -90 11 -36 3 -76 8 -90 11 -27 5 -536 14 -542 9z m450
-630 c152 -13 274 -32 402 -62 36 -9 75 -18 87 -20 12 -2 71 -20 131 -38 383
-121 706 -298 1027 -566 17 -13 87 -81 156 -150 351 -349 596 -766 733 -1246
49 -172 70 -286 102 -549 8 -71 8 -375 0 -470 -10 -104 -13 -129 -51 -355 -9
-52 -85 -318 -114 -395 -287 -782 -895 -1398 -1678 -1701 -184 -71 -446 -139
-614 -159 -30 -4 -65 -9 -79 -11 -105 -16 -370 -22 -530 -11 -147 10 -321 36
-455 69 -44 10 -90 21 -102 24 -128 26 -458 161 -628 256 -142 79 -351 217
-411 273 -6 5 -36 30 -65 55 -203 169 -432 433 -579 670 -180 290 -333 681
-385 985 -19 111 -26 166 -41 305 -6 59 -6 415 0 465 2 17 7 64 11 105 4 41 9
77 10 80 2 3 6 26 10 50 31 211 102 452 201 680 268 618 763 1135 1369 1431
234 113 454 187 710 238 146 29 187 34 345 47 41 3 76 7 77 8 5 4 298 -2 361
-8z"/>
<path d="M3283 5129 c-15 -5 -17 -31 -17 -232 -1 -145 3 -227 9 -228 57 -4
439 -2 447 2 11 7 18 392 8 440 l-5 24 -213 0 c-117 0 -220 -3 -229 -6z"/>
<path d="M2802 3968 l3 -233 230 0 230 0 1 233 1 232 -234 0 -233 0 2 -232z"/>
<path d="M3734 3968 l1 -233 233 -1 232 -1 0 234 0 233 -233 0 -234 0 1 -232z"/>
<path d="M2338 3266 c0 -1 -2 -106 -3 -233 l-2 -233 233 0 234 0 0 233 0 234
-230 0 c-126 0 -231 -1 -232 -1z"/>
<path d="M3268 3246 c-2 -12 -3 -115 -3 -231 l1 -210 234 0 234 0 0 230 0 230
-231 1 c-227 1 -231 0 -235 -20z"/>
<path d="M4200 3033 l0 -233 233 0 234 0 -1 233 -1 232 -232 1 -233 1 0 -234z"/>
<path d="M1871 2320 c-5 -12 -7 -309 -2 -430 l1 -25 226 1 c151 0 228 4 232
11 5 8 8 427 3 453 -1 3 -103 5 -227 5 -191 0 -227 -2 -233 -15z"/>
<path d="M4673 2326 c-3 -5 -6 -109 -7 -232 -1 -215 0 -223 19 -226 17 -3 354
-2 425 1 l25 1 -1 225 c0 124 -4 228 -8 232 -10 10 -447 9 -453 -1z"/>
</g>
</svg>
